<?xml version="1.0" encoding="UTF-8" standalone="no"?>
<!-- Created with Inkscape (http://www.inkscape.org/) -->

<svg
   width="88.438866mm"
   height="88.438866mm"
   viewBox="0 0 88.438866 88.438866"
   version="1.1"
   id="svg1"
   xmlns="http://www.w3.org/2000/svg"
   xmlns:svg="http://www.w3.org/2000/svg">
  <defs
     id="defs1" />
  <g
     id="layer1"
     transform="translate(-102.92292,-55.562499)">
    <g
       id="g6"
       transform="matrix(0.26458333,0,0,0.26458333,-186.28442,21.319233)">
      <circle
         style="fill:#ff0000;fill-opacity:1;stroke:#000000;stroke-width:20;stroke-linejoin:round;stroke-dasharray:none;stroke-opacity:1;paint-order:fill markers stroke"
         id="path4-3"
         cx="1260.1957"
         cy="296.55194"
         r="157.12857" />
      <path
         id="path3"
         d="m 1325.8307,279.29728 v 51.62052 c 0,36.2486 -29.3847,65.63414 -65.6347,65.63414 v 0 c -36.2499,0 -65.6356,-29.38554 -65.6356,-65.63414 v -17.9817 -6.89372 -3.49643 -11.63856 -25.02461 -15.13499 c 0,-6.84171 5.5462,-12.3879 12.3869,-12.3879 v 0 c 6.8407,0 12.3908,5.54619 12.3908,12.3879 v 15.13499 25.02461 8.73002 l 1.3446,-0.1585 v -19.81015 -13.78598 -4.94505 -21.42905 -18.73104 c 0,-6.84171 5.5501,-12.3879 12.3909,-12.3879 6.8407,0 12.3859,5.54619 12.3859,12.3879 v 18.73104 21.42905 4.94505 13.78598 16.90161 l 1.5507,-0.18157 v -18.66822 -11.8378 -16.78334 -11.53895 -28.62114 c 0,-6.84171 5.5452,-12.38741 12.3859,-12.38741 v 0 c 6.8408,0 12.386,5.5457 12.386,12.38741 v 28.62114 6.615 21.70729 6.91434 20.68364 l 1.3495,-0.15851 v -11.73671 -15.70276 -10.22135 -7.31133 -25.92411 c 0,-6.84171 5.5452,-12.3879 12.3859,-12.3879 6.8457,0 12.3909,5.54619 12.3909,12.3879 v 25.92411 1.94818 15.5845 10.33961 17.53268 31.85945 c -5.0153,-0.0442 -20.851,0.48533 -29.3798,8.58526 -3.6559,3.47336 -5.5109,7.89775 -5.5109,13.15147 h 2.9346 c 0,-4.41507 1.5457,-8.12201 4.5932,-11.01779 9.0931,-8.63924 28.5602,-7.75446 28.7565,-7.74514 l 1.5409,0.0785 0.01,-20.29842 v -29.07112 c 0,-6.89667 5.5943,-12.48752 12.489,-12.48752 6.8947,0 12.489,5.59085 12.489,12.48752"
         style="fill:#000000;fill-opacity:1;fill-rule:nonzero;stroke:none;stroke-width:0.0490727" />
    </g>
  </g>
</svg>
