<?xml version="1.0" encoding="UTF-8" standalone="no"?>
<!-- Created with Inkscape (http://www.inkscape.org/) -->

<svg
   width="88.438866mm"
   height="88.438866mm"
   viewBox="0 0 88.438866 88.438866"
   version="1.1"
   id="svg1"
   xmlns="http://www.w3.org/2000/svg"
   xmlns:svg="http://www.w3.org/2000/svg">
  <defs
     id="defs1" />
  <g
     id="layer1"
     transform="translate(-102.92292,-55.562499)">
    <g
       id="g5"
       transform="matrix(0.26458333,0,0,0.26458333,-63.006397,21.460075)">
      <circle
         style="fill:#ffff00;fill-opacity:1;stroke:#000000;stroke-width:20;stroke-linejoin:round;stroke-dasharray:none;stroke-opacity:1;paint-order:fill markers stroke"
         id="path4-1"
         cx="794.263"
         cy="296.01962"
         r="157.12857" />
      <path
         id="path1"
         d="m 818.33878,272.54894 h 29.07113 c 6.89619,0 12.48753,5.59084 12.48753,12.48752 0,6.89667 -5.59134,12.48752 -12.48753,12.48752 h -29.07113 c -6.89667,0 -12.48752,-5.59085 -12.48752,-12.48752 0,-6.89668 5.59085,-12.48752 12.48752,-12.48752 z m 0,-1.79803 h 13.63631 v -27.87229 c 0,-6.84171 -5.54619,-12.38741 -12.38741,-12.38741 -6.84171,0 -12.3879,5.5457 -12.3879,12.38741 v 33.23544 c 2.62048,-3.2648 6.63658,-5.36315 11.139,-5.36315 z m -24.87542,24.67521 v 0 c 4.83905,0 9.01906,-2.78046 11.05754,-6.82552 -0.29444,-1.14143 -0.46815,-2.33144 -0.46815,-3.56414 0,-2.51105 0.6561,-4.86899 1.79851,-6.9217 v -35.23614 c 0,-6.84171 -5.54619,-12.38741 -12.3879,-12.38741 v 0 c -6.84122,0 -12.38742,5.5457 -12.38742,12.38741 v 40.16009 c 0,6.84122 5.5462,12.38741 12.38742,12.38741 z m -26.32356,0 c 6.84171,0 12.3879,-5.54619 12.3879,-12.38741 v -40.16009 c 0,-6.84171 -5.54619,-12.38741 -12.3879,-12.38741 -6.84122,0 -12.38741,5.5457 -12.38741,12.38741 v 40.16009 c 0,6.84122 5.54619,12.38741 12.38741,12.38741 z m 80.27011,3.89588 h -19.07012 v 5.74788 l -0.85141,0.0456 c -0.35725,0.0186 -35.77299,2.11061 -35.77299,19.33168 h -1.79802 c 0,-17.54298 30.91283,-20.6483 36.6239,-21.0718 v -4.0534 h -8.20249 c -5.81119,0 -10.81316,-3.4925 -13.04302,-8.48417 -2.54049,3.84189 -6.89128,6.38631 -11.83191,6.38631 -5.96135,0 -11.06589,-3.70057 -13.16227,-8.92141 -2.0959,5.22084 -7.20043,8.92141 -13.16178,8.92141 -5.86026,0 -10.90198,-3.57249 -13.06216,-8.65396 -2.15969,5.08147 -7.20092,8.65396 -13.06118,8.65396 -5.32046,0 -9.96077,-2.94779 -12.3879,-7.2922 v 17.9817 c 0,36.2489 29.3852,65.63444 65.63419,65.63444 v 0 c 36.24899,0 65.63469,-29.38554 65.63469,-65.63444 v -15.95598 c -2.44137,4.38661 -7.12143,7.36434 -12.48753,7.36434 z m -106.39394,-3.89588 v 0 c 6.84171,0 12.3879,-5.54619 12.3879,-12.38741 v -40.16009 c 0,-6.84171 -5.54619,-12.38741 -12.3879,-12.38741 v 0 c -6.84171,0 -12.38741,5.5457 -12.38741,12.38741 v 40.16009 c 0,6.84122 5.5457,12.38741 12.38741,12.38741"
         style="fill:#000000;fill-opacity:1;fill-rule:nonzero;stroke:none;stroke-width:0.0490727" />
    </g>
  </g>
</svg>
