<?xml version="1.0" encoding="UTF-8" standalone="no"?>
<!-- Created with Inkscape (http://www.inkscape.org/) -->

<svg
   width="88.438866mm"
   height="88.438866mm"
   viewBox="0 0 88.438866 88.438866"
   version="1.1"
   id="svg1"
   xmlns="http://www.w3.org/2000/svg"
   xmlns:svg="http://www.w3.org/2000/svg">
  <defs
     id="defs1" />
  <g
     id="layer1"
     transform="translate(-102.92292,-55.5625)">
    <g
       id="g4"
       transform="matrix(0.26458333,0,0,0.26458333,60.706969,21.114991)">
      <circle
         style="fill:#00ffff;fill-opacity:1;stroke:#000000;stroke-width:20;stroke-linejoin:round;stroke-dasharray:none;stroke-opacity:1;paint-order:fill markers stroke"
         id="path4"
         cx="326.68491"
         cy="297.32388"
         r="157.12857" />
      <path
         id="path2"
         d="m 379.83187,292.90344 c 6.89667,0 12.48752,5.59085 12.48752,12.48752 0,6.89667 -5.59085,12.48752 -12.48752,12.48752 h -29.07114 c -6.89667,0 -12.48752,-5.59085 -12.48752,-12.48752 0,-6.89667 5.59085,-12.48752 12.48752,-12.48752 z m -53.94607,22.87719 v 0 c 4.83856,0 9.01857,-2.78095 11.05754,-6.82552 -0.29492,-1.14192 -0.46864,-2.33193 -0.46864,-3.56415 0,-2.51105 0.6561,-4.86948 1.79851,-6.9217 0.7567,-1.33821 1.34901,-2.00069 1.34901,-2.00069 2.61999,-3.2648 6.63609,-5.36315 11.13851,-5.36315 h 13.63631 l 19.3837,-69.72686 c 1.83287,-6.59193 -2.02522,-13.42039 -8.61666,-15.25325 -6.59144,-1.83238 -13.4204,2.02572 -15.25277,8.61716 l -20.28909,72.98332 h -1.34901 v -24.49315 -50.09976 c 0,-6.84122 -5.54619,-12.38741 -12.38741,-12.38741 -6.84171,0 -12.3879,5.54619 -12.3879,12.38741 v 50.09976 40.16008 c 0,6.84171 5.54619,12.38791 12.3879,12.38791 z m -26.32405,0 c 6.84171,0 12.3879,-5.5462 12.3879,-12.38791 v -40.16008 c 0,-6.84122 -5.54619,-12.38742 -12.3879,-12.38742 -6.84122,0 -12.38741,5.5462 -12.38741,12.38742 v 40.16008 c 0,6.84171 5.54619,12.38791 12.38741,12.38791 z m 80.27012,3.89587 h -19.07013 v 5.74739 l -0.85092,0.0456 c -0.35774,0.0186 -35.77348,2.11062 -35.77348,19.33169 h -1.79802 c 0,-17.54299 30.91283,-20.64831 36.6244,-21.07131 v -4.05341 h -8.20299 c -5.81069,0 -10.81316,-3.4925 -13.04253,-8.48417 -2.54098,3.8419 -6.89176,6.38632 -11.8324,6.38632 -5.96135,0 -11.06589,-3.70057 -13.16178,-8.92141 -2.09589,5.22084 -7.20092,8.92141 -13.16227,8.92141 -5.86026,0 -10.90149,-3.57249 -13.06167,-8.65397 -2.16018,5.08148 -7.20141,8.65397 -13.06172,8.65397 -5.32036,0 -9.96042,-2.9478 -12.388,-7.2922 v 17.9817 c 0,36.2487 29.38535,65.63419 65.63434,65.63419 v 0 c 36.249,0 65.63469,-29.38549 65.63469,-65.63419 v -15.95598 c -2.44137,4.38661 -7.12094,7.36433 -12.48752,7.36433 z m -106.3937,-3.89587 v 0 c 6.84146,0 12.38765,-5.5462 12.38765,-12.38791 v -40.16008 c 0,-6.84122 -5.54619,-12.38742 -12.38765,-12.38742 v 0 c -6.84162,0 -12.38781,5.5462 -12.38781,12.38742 v 40.16008 c 0,6.84171 5.54619,12.38791 12.38781,12.38791"
         style="fill:#000000;fill-opacity:1;fill-rule:nonzero;stroke:none;stroke-width:0.0490727" />
    </g>
  </g>
</svg>
